<?xml version="1.0" standalone="no"?>
<!DOCTYPE svg PUBLIC "-//W3C//DTD SVG 20010904//EN"
 "http://www.w3.org/TR/2001/REC-SVG-20010904/DTD/svg10.dtd">
<svg version="1.0" xmlns="http://www.w3.org/2000/svg"
 width="72.000000pt" height="72.000000pt" viewBox="0 0 72.000000 72.000000"
 preserveAspectRatio="xMidYMid meet">
<metadata>
Created by potrace 1.14, written by Peter Selinger 2001-2017
</metadata>
<g transform="translate(0.000000,72.000000) scale(0.100000,-0.100000)"
fill="#000000" stroke="none">
<path d="M70 355 l0 -175 35 0 35 0 0 75 0 75 80 0 80 0 0 -75 0 -75 35 0 35
0 0 176 0 175 -32 -3 c-33 -3 -33 -3 -36 -65 l-3 -63 -79 0 -80 0 0 65 0 65
-35 0 -35 0 0 -175z"/>
<path d="M447 523 c-4 -3 -7 -82 -7 -175 l0 -168 35 0 35 0 0 75 0 74 63 3
c59 3 62 4 65 31 l3 27 -65 0 -66 0 0 40 0 40 65 0 65 0 0 30 0 30 -93 0 c-52
0 -97 -3 -100 -7z"/>
</g>
</svg>
